<?xml version="1.0" encoding="UTF-8"?>
<svg id="Layer_1" data-name="Layer 1" xmlns="http://www.w3.org/2000/svg" viewBox="0 0 720 781.3">
  <defs>
    <style>
      .cls-1 {
        fill: #fff;
      }

      .cls-2 {
        fill: #fa4940;
      }

      .cls-3 {
        fill: #e9894e;
      }

      .cls-4 {
        fill: #3dab49;
      }
    </style>
  </defs>
  <path class="cls-4" d="m360.35,0C177.08,0,28.5,148.58,28.5,331.85s148.58,331.85,331.85,331.85,331.85-148.57,331.85-331.85S543.63,0,360.35,0Zm25.74,124.5c1.44-5.45,2.35-11.05,3.72-16.53,2.58-10.31,8.69-18.33,16.8-24.9,4.03-3.27,8.92-4.88,13.9-6.09,2.22-.54,4.46-.2,6.71.37,7.73,1.97,13.91,6.13,18.54,12.63,7.26,10.2,10.63,21.8,12.02,34.04.41,3.64.07,7.36.07,11.04.42,14.03-1.98,27.65-6.94,40.73-3.88,10.2-9.81,19.06-18.63,25.82-3.48,2.66-7.4,4.14-11.52,5.22-3.08.81-6.16.55-9.16-.65-6.17-2.47-11.44-5.99-15.42-11.51-6.09-8.48-9.31-18.03-11.31-28.12-2.8-14.11-2.46-28.11,1.22-42.05Zm-118.86-21.24c1.89-5.11,4.51-9.76,7.7-14.11,2.02-2.75,4.43-5.17,7.26-7.11,10.62-7.28,22.52-6.47,32.75,2.19,8.76,7.42,14.07,16.92,16.51,28.02,1.7,7.72,3.27,15.49,4.47,23.3,2.89,18.72.04,36.62-8.52,53.54-2.99,5.91-7.22,10.78-12.97,14.25-7.37,4.46-14.88,5.15-22.52.84-4.19-2.38-7.95-5.3-11.15-9-9.36-10.86-13.97-23.73-16.77-37.53-1.54-7.56-1.94-15.14-1.98-24.63-.67-9.09,1.45-19.54,5.22-29.76Zm-108.77,76.92c-.54-7.39,1.29-15.07,3.82-22.62,3.88-11.6,12.88-17.83,23.89-20.98,7.07-2.02,13.95.03,19.75,5.06,7.92,6.87,13.26,15.42,16.75,25.17,3.26,9.13,4.7,18.68,5,28.28.33,10.26-1.84,20.22-5.82,29.74-2.01,4.8-4.99,8.86-8.85,12.31-7.58,6.76-17.05,7.91-25.93,2.88-7.28-4.12-13.05-9.9-17.36-17.08-6.65-11.05-11.92-27.53-11.25-42.76Zm383.45,167.3c-1.15,6.1-1.73,12.29-3.52,18.3-4.29,14.4-11.94,26.84-21.77,38.04-9.03,10.3-19.79,18.61-30.98,26.39-14.41,10.04-28.86,20.02-43.27,30.04-11.01,7.66-20.36,17.17-29.41,26.96-2.67,2.89-5.01,6.16-7.13,9.49-9.44,14.85-17.71,30.33-24.24,46.7-1.36,3.42-2.75,6.84-4.43,10.11-3.5,6.83-6.51,13.83-8.87,21.13-.52,1.61-1.01,3.28-1.85,4.73-3.66,6.28-9.48,6.13-13.02-.32-.67-1.22-1-2.63-1.47-3.96-2.77-7.75-5.97-15.29-9.56-22.7-3.21-6.62-5.91-13.48-8.82-20.24-5.86-13.58-13.16-26.37-21.62-38.46-7.68-11-17.43-20.11-27.86-28.45-14.83-11.88-30.89-22.04-46.51-32.81-11.44-7.88-22.64-16.06-32.1-26.39-12.7-13.84-22.03-29.45-25.73-48.05-1.32-6.65-2.45-13.33-2.55-20.17-.11-7.81,1.43-15.25,4.37-22.35,11.11-26.82,29.47-47.43,54.17-62.5,12.22-7.45,25.46-12.35,39.48-15.01,15.45-2.93,30.41-1.79,44.22,6.6,8.63,5.24,15.38,12.48,21.2,20.58,6.47,9.02,11.51,18.83,15.23,29.31,1.02,2.85,2.08,5.71,4.48,8.78,2.12-5.13,3.93-9.56,5.76-13.97,6.27-15.12,14.88-28.63,27.3-39.5,8.12-7.12,17.62-11,28.26-12.59,15.38-2.29,29.78,1.57,43.9,6.72,21.01,7.66,38.01,21.14,52.58,37.81,9.05,10.34,15.84,22.17,20.75,34.92,3.81,9.87,5.03,20.18,3.01,30.86Zm19.79-167.87c.05,17.12-4.05,31.11-11.77,44-4.14,6.91-9.86,12.43-16.91,16.4-9.2,5.19-18.81,3.79-26.54-3.4-7.43-6.92-10.51-15.91-12.61-25.44-3.79-17.27-.47-33.79,5.59-49.9,2.62-6.96,7.2-12.95,12.49-18.07,8.37-8.09,19.65-8.69,28.2-4.37,9.85,5,16.03,12.2,18.89,22.66,1.82,6.6,2.98,13.25,2.66,18.12Z"/>
  <path class="cls-1" d="m175.31,546.28c-.68-.45-1.37-.91-2.06-1.35.23-.23.47-.47.71-.71.85.35,1.47.88,1.53,1.87l-.19.19Z"/>
  <path class="cls-1" d="m175.5,546.09c.38.23.76.47,1.15.7-.91,1.06-1.06.1-1.34-.51,0,0,.19-.19.19-.19Z"/>
  <path class="cls-1" d="m550.23,543.23c-.85,1.11-2,1.62-3.37,1.7-.25-.25-.49-.49-.74-.73.63-1.29,1.82-1.79,3.06-2.22.34.42.69.84,1.05,1.26Z"/>
  <path class="cls-1" d="m544.8,546.26c-.24.81-.78,1.33-1.63,1.32-.22,0-.43-.55-.64-.84.7-.21,1.4-.42,2.1-.63l.17.16Z"/>
  <path class="cls-1" d="m544.63,546.09c.05-.99.65-1.53,1.49-1.89.25.24.49.48.74.73-.68.45-1.37.89-2.06,1.33,0,0-.16-.16-.16-.16Z"/>
  <g>
    <g>
      <path class="cls-3" d="m550.23,543.23c5.04-1.37,8.98-4.79,13.37-7.33,10.05-5.82,19.95-11.92,29.73-18.18,13.65-8.75,24.1-20.44,31.58-34.88,10.43-20.14,20.55-40.42,29.35-61.35,3.07-7.31,6.44-14.51,9.77-21.71,4.28-9.26,8.44-18.59,13.07-27.67,3.21-6.29,6.95-12.35,10.81-18.28,3.28-5.04,7.5-9.24,13.15-11.74,5.96-2.64,11.33-1.01,14.54,4.54,2.58,4.48,4.35,9.31,4.35,14.51,0,16.73.33,33.49-.53,50.19-.45,8.76-.62,17.55-1.33,26.29-1.04,12.69-1.04,25.44-2.81,38.09-1.09,7.84-1.41,15.78-2.25,23.66-.81,7.59-1.92,15.15-2.77,22.74-.78,7.03-1.53,14.07-2.04,21.12-.62,8.5-1.93,16.94-4.1,25.1-3.8,14.28-11.1,26.64-22.96,35.91-13.84,10.82-27.62,21.71-42.38,31.31-9.53,6.19-19.62,11.35-29.54,16.83-17.62,9.72-35.44,19.07-53.16,28.6-4.24,2.28-8.36,4.8-12.64,7-3.03,1.56-4.66,3.94-5.43,7.16-2.78,11.55-5.65,23.08-8.43,34.64-1.32,5.5-2.42,11.06-3.75,16.56-.73,3.02-1.76,5.96-1.81,9.14-.05,3.98-2.01,7-5.22,9.25-14.25,9.99-29.84,15.86-47.43,16.48-18.28.64-36.09-1.52-53.76-6.33-11.32-3.08-21.92-7.56-32.2-13.05-4.07-2.18-7.28-5.33-10.62-8.41-3.28-3.02-4.23-6.49-3.38-10.74,1.34-6.65,2.63-13.32,3.8-20.01,2.72-15.6,5.36-31.22,8.03-46.83,4.97-29,9.82-58.02,16.91-86.6,1.7-6.85,3.48-13.68,6.35-20.23,3.89-8.89,10.09-15.65,17.8-21.23,10.14-7.35,21.16-13.18,32.45-18.51,19.48-9.18,39.18-17.85,59.26-25.65,14.33-5.56,29.15-9.06,44.3-11.41,3.54-.55,6.76.4,9.85,1.93,3.01,1.49,4.79,3.99,5.24,7.29.62,4.59.33,9.07-2.28,13.12-2.3,3.58-4.71,7.07-7.77,10.09-4.04,3.99-8.04,8-12.02,12.04-1.57,1.6-3.48,2.97-4.11,5.31-1.24.43-2.43.94-3.05,2.23-.83.37-1.44.91-1.49,1.89-.7.21-1.4.42-2.1.63.21.3.42.84.64.84.84.02,1.38-.5,1.62-1.32.69-.44,1.38-.88,2.07-1.32,1.37-.08,2.52-.59,3.36-1.7Z"/>
      <g>
        <path class="cls-2" d="m719.87,397.47c.23-12.11.07-24.23.07-36.35,0-4.13-1.14-8.03-2.9-11.71l-21.15,177.15c-.28,2.33,1.39,4.45,3.72,4.73.17.02.34.03.51.03,2.13,0,3.96-1.59,4.22-3.75l15.54-130.1Z"/>
        <path class="cls-2" d="m705.2,340.93c-7.23,40.96-24.13,134.9-34.06,189.89-.42,2.31,1.12,4.53,3.43,4.94.26.05.51.07.76.07,2.02,0,3.81-1.44,4.18-3.5,12.66-70.15,27.11-150.43,33.81-188.59-2.24-2.18-5.03-3.15-8.13-2.81Z"/>
        <path class="cls-2" d="m543.17,547.57c-2.32-1.98-5.31-1.6-7.6-.9l-59.55,45.34c-1.87,1.43-2.23,4.09-.81,5.96.84,1.1,2.11,1.68,3.39,1.68.9,0,1.8-.28,2.57-.87l63.58-48.41c-.25-1.07-.71-2.06-1.58-2.81Z"/>
      </g>
    </g>
    <g>
      <path class="cls-3" d="m173.97,544.22c-6.14-6.27-12.23-12.58-18.43-18.78-3.23-3.23-5.96-6.83-8.39-10.66-1.7-2.68-2.56-5.61-2.66-8.83-.29-9.26,5.7-15.08,15.01-13.69,7.53,1.12,15.05,2.38,22.47,4.31,13.2,3.44,25.78,8.51,38.4,13.54,16.32,6.51,32.14,14.14,48,21.66,8.7,4.12,17.03,8.95,25.1,14.27,11.34,7.48,19,17.52,22.98,30.56,4.39,14.37,7.36,29.06,10.34,43.75,5.39,26.6,9.64,53.41,13.96,80.2,2.21,13.67,4.97,27.25,7.74,40.82,1.07,5.24.09,9.32-4.02,12.94-3.42,3.01-6.86,5.85-10.85,8.11-16.26,9.2-33.97,13.73-52.18,17.06-11.84,2.16-23.71,1.97-35.58,1.48-16.61-.68-31.4-6.74-44.8-16.41-2.39-1.73-4.53-3.95-4.62-6.84-.2-6.65-2.73-12.71-4.17-19.03-3.2-14.06-5.55-28.31-9.78-42.15-1.35-4.43-3.43-7.26-7.54-9.46-27.72-14.84-55.38-29.79-82.91-44.97-13.42-7.4-25.78-16.46-37.83-25.9-6.68-5.23-13.47-10.32-19.8-16.04-9.65-8.72-14.98-19.86-18.5-31.93-2.21-7.58-3.2-15.48-3.98-23.39-1.4-14.06-3.13-28.09-4.65-42.14-.76-7.03-1.32-14.08-2.09-21.11-2.21-20.28-2.56-40.67-3.89-60.99C.07,401.89.18,383.23,0,364.54c-.04-4,.61-7.86,1.6-11.74.73-2.85,2.05-5.29,3.72-7.56,3.27-4.47,7.5-5.53,12.72-3.55,6.1,2.32,10.44,6.78,14.03,11.94,4.21,6.04,8.12,12.31,11.25,18.99,5.77,12.31,11.6,24.6,17.05,37.04,10.68,24.41,22.05,48.47,34.21,72.18,8.42,16.42,20.65,28.96,36.12,38.56,12.28,7.61,24.73,14.94,37.07,22.44,1.72,1.05,3.42,2,5.49,2.08.69.45,1.37.9,2.06,1.35.28.61.42,1.57,1.34.51-.38-.23-.76-.47-1.15-.7-.07-.99-.68-1.52-1.53-1.87Z"/>
      <g>
        <path class="cls-2" d="m.83,397.47c-.23-12.11-.07-24.23-.07-36.35,0-4.13,1.14-8.03,2.9-11.71l21.15,177.15c.28,2.33-1.39,4.45-3.72,4.73-.17.02-.34.03-.51.03-2.13,0-3.96-1.59-4.22-3.75L.83,397.47Z"/>
        <path class="cls-2" d="m15.5,340.93c7.23,40.96,24.13,134.9,34.06,189.89.42,2.31-1.12,4.53-3.43,4.94-.26.05-.51.07-.76.07-2.02,0-3.81-1.44-4.18-3.5-12.66-70.15-27.11-150.43-33.81-188.59,2.24-2.18,5.03-3.15,8.13-2.81Z"/>
        <path class="cls-2" d="m177.53,547.57c2.32-1.98,5.31-1.6,7.6-.9l59.55,45.34c1.87,1.43,2.23,4.09.81,5.96-.84,1.1-2.11,1.68-3.39,1.68-.9,0-1.8-.28-2.57-.87l-63.58-48.41c.25-1.07.71-2.06,1.58-2.81Z"/>
      </g>
    </g>
  </g>
</svg>